<svg width="62" height="16" viewBox="0 0 62 16" fill="none" xmlns="http://www.w3.org/2000/svg">
<g clip-path="url(#clip0_2090_1208)">
<path d="M56.8854 14.0073H55.4515V13.7588C55.4515 12.1667 55.4577 10.5751 55.4474 8.98308C55.4448 8.55817 55.3412 8.14664 55.1324 7.77207C54.9294 7.40766 54.6041 7.20813 54.2224 7.1116C53.6847 6.97535 53.1631 7.05156 52.7101 7.38041C52.1948 7.75498 51.8672 8.29444 51.8336 8.93597C51.7753 10.0454 51.7892 11.1589 51.778 12.2711C51.7722 12.8457 51.7771 13.4202 51.7771 14.0064H50.3594V6.14076H51.7637V7.36886C52.3458 6.33428 53.2397 5.87426 54.3487 5.90797C55.4802 5.94215 56.3244 6.41233 56.7169 7.561C56.8683 7.33145 56.9978 7.07788 57.1784 6.87281C57.6646 6.32042 58.2659 6.00266 59.0035 5.93476C59.6599 5.87472 60.2788 5.95878 60.842 6.30934C61.4837 6.70839 61.7763 7.35547 61.8973 8.08337C61.9654 8.49351 61.9869 8.91519 61.9896 9.33226C62.0003 10.801 61.9936 12.2697 61.9936 13.7389V14.0031H60.5597V13.7477C60.5597 12.1635 60.5678 10.5793 60.5548 8.99509C60.5512 8.54062 60.4432 8.1023 60.1954 7.70833C59.9705 7.35085 59.638 7.18088 59.2553 7.09821C58.0347 6.83494 57.0292 7.81318 56.9396 8.9623C56.8768 9.76272 56.8943 10.5701 56.8876 11.3746C56.88 12.2434 56.8858 13.1122 56.8858 14.0073H56.8854Z" fill="white"/>
<path d="M5.54028 7.31809C6.41316 7.02018 7.27036 6.7269 8.128 6.43454C8.52322 6.29967 8.91799 6.16434 9.3141 6.03225C9.74292 5.88953 10.0122 6.04149 10.1251 6.48534C10.1915 6.74537 10.0176 7.04974 9.73978 7.14627C8.46004 7.59151 7.18657 8.05661 5.89607 8.46583C5.46635 8.60208 5.25888 8.77897 5.2069 9.26717C5.11056 10.172 4.93178 11.0675 4.77494 11.9645C4.65172 12.6674 4.56972 13.3861 4.36091 14.0623C4.08892 14.9426 3.5642 15.6386 2.64338 15.9236C1.84757 16.1698 0.853259 15.8021 0.375147 15.1075C0.00905696 14.5754 -0.0514352 13.9958 0.0345981 13.3847C0.0722377 13.1182 0.293594 12.854 0.727794 12.9094C0.957216 12.9385 1.1835 13.1963 1.19067 13.4655C1.19605 13.6586 1.1723 13.8544 1.1956 14.0447C1.25744 14.5477 1.84936 14.9093 2.32075 14.7602C2.84771 14.5934 3.09461 14.1546 3.23979 13.6785C3.39841 13.1584 3.46876 12.6092 3.5651 12.0702C3.67264 11.4703 3.76764 10.8675 3.86487 10.2657C3.92492 9.89531 3.97869 9.52396 4.04187 9.11152C3.66592 9.23345 3.30924 9.34753 2.95301 9.46531C2.52912 9.60525 2.10746 9.7512 1.68312 9.8893C1.4304 9.97151 1.06924 9.79739 0.992167 9.53736C0.920024 9.29349 0.937052 8.89075 1.25385 8.77435C1.80321 8.57206 2.36019 8.39147 2.91492 8.20487C3.31014 8.07185 3.7067 7.94161 4.10371 7.81367C4.20766 7.78042 4.27308 7.74716 4.29235 7.60768C4.36629 7.07099 4.47204 6.53938 4.55045 6.00361C4.68443 5.09143 4.91116 4.2088 5.2665 3.35989C5.60794 2.54423 6.06141 1.8094 6.68202 1.1905C7.26901 0.605311 7.95414 0.190554 8.7634 0.0455282C9.45211 -0.0777903 10.118 0.0436808 10.6844 0.480145C11.2046 0.880584 11.538 1.44175 11.6186 2.10268C11.6805 2.61074 11.6513 3.13403 11.6227 3.64855C11.6079 3.91875 11.3726 4.05176 11.0464 4.0513C10.7632 4.05084 10.5432 3.9072 10.519 3.64301C10.489 3.31462 10.5208 2.98069 10.5092 2.65C10.4962 2.27358 10.4047 1.91563 10.1511 1.63204C9.73217 1.16325 9.21328 1.13415 8.66078 1.31659C8.15982 1.48193 7.76595 1.8094 7.40255 2.19229C6.45573 3.18946 6.04438 4.44527 5.76926 5.76298C5.66351 6.26919 5.61511 6.78786 5.53849 7.31809H5.54028Z" fill="white"/>
<path d="M38.7073 7.64176V2.63281H40.117V14.0044H38.7069V12.508C38.5603 12.7302 38.4456 12.9246 38.3112 13.1038C37.8071 13.7758 37.1269 14.1102 36.3172 14.2058C35.5819 14.2926 34.8856 14.1698 34.2327 13.8183C33.5305 13.44 33.0753 12.8341 32.7831 12.0882C32.4919 11.3446 32.3888 10.5654 32.4309 9.77282C32.4807 8.84123 32.6989 7.94983 33.2594 7.19421C33.7434 6.54206 34.39 6.14254 35.1835 5.98458C35.9211 5.83771 36.6309 5.88528 37.3079 6.22383C37.8739 6.50695 38.3049 6.94342 38.5944 7.5226C38.6168 7.5674 38.6414 7.61035 38.6647 7.65423C38.6791 7.65007 38.6934 7.64592 38.7073 7.64176ZM38.719 10.0966C38.6975 9.79268 38.6898 9.48692 38.6513 9.18532C38.5926 8.72853 38.4196 8.31054 38.1248 7.96553C37.5302 7.26903 36.7828 7.003 35.8857 7.13879C34.9953 7.27365 34.4316 7.7988 34.1323 8.64124C33.8437 9.45274 33.8299 10.2929 34.0077 11.1284C34.1404 11.7519 34.4146 12.3043 34.9451 12.683C35.4963 13.0766 36.1088 13.1791 36.7527 13.0438C37.4791 12.8909 38.0455 12.5029 38.3905 11.7972C38.6544 11.2568 38.7342 10.691 38.7185 10.0966H38.719Z" fill="white"/>
<path d="M23.4946 10.4198H17.3979C17.3244 11.2794 17.9351 12.6387 19.1575 12.9841C20.2952 13.3056 21.7914 13.0082 22.2332 11.2119C22.6231 11.2628 23.0138 11.3136 23.4198 11.3662C23.28 11.9847 23.0514 12.5454 22.6549 13.0303C22.0249 13.7998 21.2053 14.1314 20.2504 14.2159C19.5931 14.2737 18.9581 14.2081 18.3478 13.9748C17.1169 13.5047 16.3413 12.5994 16.0706 11.2729C15.9806 10.8309 15.921 10.3686 15.9416 9.92011C15.9859 8.96173 16.2673 8.07818 16.8638 7.31241C17.4476 6.5628 18.2103 6.12448 19.1073 5.96144C20.1433 5.773 21.1403 5.95498 22.0132 6.57527C22.7812 7.12073 23.1944 7.93315 23.3597 8.86243C23.4484 9.36079 23.4507 9.87577 23.495 10.4203L23.4946 10.4198ZM21.9944 9.44485C21.9576 9.21715 21.9375 9.00145 21.8868 8.79361C21.6552 7.84078 21.0946 7.20248 20.133 7.069C19.2144 6.94153 18.4352 7.25282 17.9002 8.07864C17.6336 8.49017 17.4682 8.94002 17.405 9.44485H21.9948H21.9944Z" fill="white"/>
<path d="M31.745 10.4194H25.6483C25.5744 11.278 26.1851 12.6382 27.4075 12.9837C28.5466 13.3056 30.0419 13.0068 30.4832 11.2115C30.8731 11.2623 31.2638 11.3131 31.6702 11.3662C31.5304 11.9847 31.3019 12.5454 30.9053 13.0303C30.2753 13.7998 29.4558 14.1323 28.5009 14.2155C27.844 14.2727 27.2086 14.2081 26.5983 13.9748C25.3674 13.5042 24.5917 12.5994 24.3206 11.2729C24.2306 10.8314 24.171 10.3686 24.1916 9.92011C24.2359 8.96173 24.5169 8.07818 25.1138 7.31241C25.6976 6.5628 26.4603 6.12448 27.3569 5.96144C28.3929 5.773 29.3899 5.95498 30.2628 6.57527C31.0308 7.12073 31.4439 7.93315 31.6097 8.86243C31.6984 9.36079 31.7007 9.87577 31.745 10.4203V10.4194ZM30.2327 9.44762C30.1722 8.56268 29.9132 7.78674 29.1493 7.34335C28.3723 6.89257 27.5594 6.91705 26.7927 7.42325C26.0821 7.89297 25.7975 8.6181 25.6483 9.44762H30.2323H30.2327Z" fill="white"/>
<path d="M49.143 9.99882C49.1255 11.0713 48.8876 12.0093 48.267 12.8056C47.7149 13.5136 46.9868 13.9612 46.126 14.1501C45.1554 14.363 44.2068 14.2646 43.3219 13.7852C42.2944 13.2291 41.6612 12.347 41.4363 11.1761C41.3538 10.748 41.2938 10.3037 41.3063 9.8695C41.3377 8.81229 41.6585 7.84421 42.3885 7.0789C43.0629 6.37178 43.8981 6.00275 44.8749 5.93393C45.6743 5.87758 46.42 6.01707 47.1252 6.38749C47.7571 6.71957 48.2388 7.21792 48.5923 7.85345C48.9741 8.53979 49.1148 9.28524 49.1425 9.99882H49.143ZM42.7662 10.2136C42.7891 10.4011 42.8119 10.7193 42.8693 11.0306C42.9683 11.5673 43.1825 12.0652 43.5647 12.4416C44.1903 13.0578 44.9663 13.2282 45.7944 13.0328C46.7287 12.8125 47.2677 12.1419 47.5205 11.2223C47.7118 10.5258 47.7167 9.81223 47.5662 9.10557C47.4214 8.42755 47.1181 7.83359 46.5374 7.44932C46.0234 7.10938 45.4575 6.99346 44.8368 7.08768C44.1786 7.1879 43.6709 7.50151 43.2981 8.05621C42.8886 8.66541 42.7864 9.36237 42.7662 10.2136Z" fill="white"/>
<path d="M11.2036 6.13396H12.6056V7.6378C12.7661 7.35745 12.8839 7.10111 13.0452 6.87803C13.4956 6.2559 14.0911 5.87624 14.8618 5.90811C15.1427 5.91966 15.4219 6.04806 15.6966 6.13858C15.8431 6.18708 15.8866 6.28592 15.8561 6.46789C15.7938 6.83785 15.7813 7.21704 15.7494 7.57822C15.4743 7.49047 15.2153 7.39024 14.9483 7.3265C14.1404 7.13483 13.414 7.53388 13.0197 8.22206C12.7396 8.71072 12.62 9.23956 12.6204 9.80304C12.6213 11.118 12.6204 12.4324 12.6204 13.7474V14.0065H11.2031V6.13396H11.2036Z" fill="white"/>
</g>
<defs>
<clipPath id="clip0_2090_1208">
<rect width="62" height="16" fill="white"/>
</clipPath>
</defs>
</svg>
